<?xml version="1.0" encoding="UTF-8" standalone="no"?>
<!-- Created with Inkscape (http://www.inkscape.org/) -->
<svg xmlns:dc="http://purl.org/dc/elements/1.1/" xmlns:cc="http://creativecommons.org/ns#" xmlns:rdf="http://www.w3.org/1999/02/22-rdf-syntax-ns#" xmlns:svg="http://www.w3.org/2000/svg" xmlns="http://www.w3.org/2000/svg" xmlns:sodipodi="http://sodipodi.sourceforge.net/DTD/sodipodi-0.dtd" xmlns:inkscape="http://www.inkscape.org/namespaces/inkscape" width="320.96869mm" height="227.67096mm" viewBox="0 0 320.96869 227.67096" version="1.1" id="svg83821" inkscape:version="0.92.4 (5da689c313, 2019-01-14)" sodipodi:docname="Desktop_Computer.svg">
  <defs id="defs83815"/>
  <sodipodi:namedview id="base" pagecolor="#ffffff" bordercolor="#ff0000" borderopacity="1" inkscape:pageopacity="0.0" inkscape:pageshadow="2" inkscape:zoom="0.35" inkscape:cx="1202.8111" inkscape:cy="39.410455" inkscape:document-units="mm" inkscape:current-layer="layer1" showgrid="false" borderlayer="true" inkscape:showpageshadow="false" fit-margin-top="0" fit-margin-left="0" fit-margin-right="0" fit-margin-bottom="0" inkscape:window-width="1907" inkscape:window-height="912" inkscape:window-x="0" inkscape:window-y="23" inkscape:window-maximized="0" inkscape:pagecheckerboard="true"/>
  <metadata id="metadata83818">
    <rdf:RDF>
      <cc:Work rdf:about="">
        <dc:format>image/svg+xml</dc:format>
        <dc:type rdf:resource="http://purl.org/dc/dcmitype/StillImage"/>
        <dc:title/>
      </cc:Work>
    </rdf:RDF>
  </metadata>
  <g inkscape:label="Layer 1" inkscape:groupmode="layer" id="layer1" transform="translate(156.73644,46.199682)">
    <path style="fill:#000000;stroke-width:1.00000012" d="m 738.16406,0 c -1.02951,0.01681051 -2.96752,0.54155801 -4.97656,1.3925781 -8.22064,3.4822224 -67.49009,22.6134419 -92.86914,29.9765629 -30.47552,8.841739 -73.81401,24.034706 -76.64844,26.86914 -0.73924,0.739234 -0.68129,3.788526 0.19531,10.203125 0.75417,5.518711 0.88859,9.5118 0.33789,10.0625 -0.95036,0.950381 -5.02196,2.189336 -39.88476,12.128906 -19.97606,5.695272 -79.11089,23.376858 -107,31.994138 -33.45672,10.33757 -134.35005,44.66618 -145.55078,49.52344 l -12.54883,5.44336 2.27734,17.19727 c 1.25292,9.45891 2.5559,18.46642 2.89453,20.01562 0.52314,2.39322 -0.006,3.38883 -3.51562,6.62891 -2.27189,2.09741 -6.83195,5.25524 -10.13477,7.01562 -4.44715,2.37031 -5.874,3.63305 -5.49609,4.86914 0.28067,0.91801 2.05801,8.64492 3.94922,17.16992 5.32431,24.00044 6.74484,34.38536 15.66797,114.5 1.16392,10.45001 2.51195,22.79168 2.99414,27.42774 1.04028,10.00177 1.82646,11.03835 12.2168,16.07226 8.92351,4.32327 10.27886,6.49246 11.78515,18.88086 1.45082,11.9323 1.1304,12.33913 -10.28906,13.08203 l -8.25,0.53711 -0.55469,4.81836 c -0.58931,5.12966 -1.92729,6.63393 -5.94531,6.67774 -1.375,0.015 -7.9,1.30736 -14.5,2.87305 l -12,2.84765 -16.26172,11.95313 c -14.47321,10.63886 -37.01746,25.393 -58.41016,38.22656 -4.03094,2.41819 -12.2187,7.51785 -18.19531,11.33398 -5.97664,3.81614 -19.38779,11.22183 -29.80273,16.45703 C 82.583113,553.80378 56.511367,573.4183 31.318359,601.125 8.7485333,625.94678 1.1336403,641.89636 0.11328125,666.49023 c -0.87065196,20.98568 3.15795045,32.8052 15.22265675,44.67579 17.545586,17.26329 38.216451,26.20611 67.982421,29.4082 13.042621,1.40311 47.063991,0.64323 71.000001,-1.58594 8.79999,-0.81955 22.97501,-1.49072 31.5,-1.49023 l 15.5,0.002 -2.61328,2.24414 c -3.93347,3.37913 -8.85045,12.27409 -9.92969,17.96484 -2.38231,12.56202 -0.63552,20.98155 5.35938,25.83594 2.14076,1.73348 2.11515,1.7583 -2.82813,2.59766 -2.74401,0.46575 -12.52576,0.76132 -21.73828,0.65625 l -16.75,-0.19141 v 36.94141 h -0.002 v 36.93945 h 867.51374 192.7793 v -72.50976 c -1.4367,-0.0171 -4.0588,-0.0337 -4.8848,-0.0508 l -32.0937,-0.66211 2.8261,-5.21679 c 3.7401,-6.90524 6.2655,-9.06055 10.625,-9.06055 3.154,0 3.6962,-0.39184 4.8184,-3.49805 0.6955,-1.92502 1.2881,-5.75196 1.3184,-8.50195 0.051,-4.67902 -0.1528,-5.09437 -3.1739,-6.49805 -3.17,-1.47284 -3.234,-1.63702 -3.5273,-9 -0.1644,-4.12437 -0.6957,-7.89687 -1.1817,-8.38281 -0.4859,-0.48593 -5.3491,-1.027 -10.8066,-1.20312 -5.4575,-0.1762 -14.1512,-1.18475 -19.3184,-2.24219 -5.1672,-1.05744 -11.8695,-1.98741 -14.8945,-2.06641 -3.025,-0.079 -8.875,-0.55632 -13,-1.06054 -4.125,-0.50427 -16.725,-2.05416 -28,-3.44336 -11.275,-1.38921 -27.475,-3.23868 -36,-4.11133 -8.525,-0.87262 -22.7,-2.74562 -31.5,-4.16211 -8.8,-1.41649 -17.8,-2.7179 -20,-2.89063 -2.2001,-0.17291 -10.525,-1.44774 -18.50004,-2.83203 -7.975,-1.38425 -17.64999,-2.76933 -21.5,-3.07812 -9.78615,-0.78459 -14.78586,-1.73382 -50.5,-9.5918 -39.19541,-8.62394 -44.15194,-10.11968 -50.28125,-15.16992 l -4.78321,-3.93945 -6.80859,5.5 c -3.74483,3.02566 -8.2768,7.79186 -10.07227,10.58984 -3.75427,5.85056 -7.04801,15.59457 -7.07031,20.92187 -0.0196,4.69592 -0.51234,5.33543 -6.23047,8.06836 -6.67818,3.19178 -8.56545,5.91177 -8.11719,11.70118 0.4373,5.64756 1.70676,7.39257 5.37891,7.39257 3.30852,0 3.78815,1.0233 4.60938,9.85938 0.48093,5.1747 0.29451,6.96083 -0.81641,7.88281 -1.68705,1.40013 -19.70913,4.68931 -20.63281,3.76563 -0.34691,-0.34693 -0.80542,-31.58087 -1.01953,-69.41016 l -0.38868,-68.78125 -30.04687,-0.6582 c -16.52538,-0.36238 -40.09741,-0.66016 -52.38281,-0.66016 h -22.33789 v -9.75 l -0.002,-9.75 -7.97461,-0.18359 c -9.17043,-0.21268 -23.10339,-2.61642 -28.6914,-4.94922 -5.3615,-2.23824 -14.07282,-8.4748 -15.17578,-10.86524 -2.27753,-4.93606 -4.41488,-13.38248 -3.79493,-14.99804 0.62615,-1.63181 2.08904,-1.73646 18.21094,-1.29297 20.43924,0.56224 20.42969,0.5683 20.42969,-9.27344 v -5.61914 l 19.66016,-0.6582 c 10.81344,-0.36212 27.6975,-0.65821 37.51953,-0.65821 h 17.85742 l -0.46094,-2.25 c -0.25414,-1.23749 -0.71693,-9.225 -1.02734,-17.75 -0.31043,-8.525 -1.68198,-35.525 -3.04688,-60 -2.37099,-42.51608 -5.49665,-100.26457 -11.04297,-204 -1.3968,-26.12499 -4.07372,-75.84999 -5.94922,-110.5 -1.87548,-34.65 -3.68036,-69.749998 -4.01171,-77.999996 C 744.0303,54.967428 740.04517,1.3869833 738.85938,0.16015625 738.74912,0.04608727 738.50723,-0.0056035 738.16406,0 Z M 249.51758,488.49023 c 2.98726,0 6.29732,0.463 7.35547,1.0293 2.74936,1.47142 5.00454,6.35656 4.70312,10.1875 l -0.25781,3.2832 6.54883,0.5 c 7.48131,0.57113 11.94405,2.91116 11.96484,6.27344 0.0461,7.50938 2.73902,9.20077 14.1543,8.89063 6.19112,-0.1682 8.89972,0.13272 9.47656,1.05078 0.44424,0.70702 0.86403,7.82615 0.93164,15.82031 0.0766,9.06177 0.56948,15.36895 1.30859,16.75 1.13932,2.129 1.74378,2.21484 15.5293,2.21484 h 14.34375 l 0.70703,12.25391 0.70703,12.25391 2.66407,0.0449 c 1.46491,0.0238 13.35156,0.13302 26.41406,0.24414 27.12785,0.23074 25.99901,-0.2544 20.73633,8.92187 -3.08996,5.38783 -9.75385,11.1 -17.98633,15.41407 -4.14536,2.17232 -5.89885,2.38457 -22.25,2.69336 -21.17658,0.40017 -21.19287,0.40849 -20.11914,10.88867 l 0.64258,6.25781 -32.88672,0.26367 -32.88672,0.26367 0.20117,9.47071 c 0.13851,6.48151 -0.17709,9.71132 -1,10.23437 -0.6613,0.42017 -4.91367,0.77174 -9.45117,0.7793 l -8.25,0.0156 v 6.84766 c 0,3.76702 -0.28812,10.24369 -0.63867,14.39063 -0.61863,7.31833 -0.56721,7.56216 1.75,8.31054 1.31304,0.42391 4.86367,0.71162 7.88867,0.63867 5.98845,-0.1446 9.17432,1.03658 7.44726,2.76368 -0.56982,0.5698 -5.29161,1.94271 -10.49218,3.04882 -12.27415,2.61068 -14.45508,4.19751 -14.45508,10.52149 v 4.79492 l -7.5,0.20508 c -10.65325,0.29382 -11.29726,0.69147 -10.5,6.48828 l 0.65234,4.74023 -4.32617,0.62891 c -2.37966,0.34609 -10.62618,1.29884 -18.32617,2.11719 -7.69999,0.81834 -21.65002,2.66785 -31,4.11133 v 0.002 c -23.63762,3.64917 -53.07477,4.22666 -69.000001,1.35547 -12.124761,-2.18604 -24.315136,-5.8982 -31.998047,-9.7461 -5.885895,-2.94788 -20.928228,-15.46176 -25.943359,-21.58203 -5.155313,-6.29136 -6.56004,-10.44867 -6.544922,-19.35547 0.01769,-9.30909 1.923501,-17.98602 5.857422,-26.6621 8.864542,-19.55029 27.500207,-37.6129 66.128907,-64.10157 20.29478,-13.91663 22.31354,-15.12853 33.5,-20.10156 20.42396,-9.07959 66.76825,-37.03712 87.5,-52.78516 11.05685,-8.39889 20.00294,-12.63086 26.69922,-12.63086 z" transform="matrix(0.26458333,0,0,0.26458333,-156.73627,-46.199573)" id="path84579" inkscape:connector-curvature="0"/>
    <path style="fill:#ffffff;stroke-width:1.00000012" d="m 164.13867,794.25391 -0.65625,12.86718 c -0.36094,7.07713 -0.65792,19.50665 -0.66015,27.61914 l -0.004,14.75 h 858.41403 181.0567 v -53.49804 c -297.1376,-0.34375 -623.65539,-0.81263 -761.06057,-1.11914 z" transform="matrix(0.26458333,0,0,0.26458333,-156.73627,-46.199573)" id="path84577" inkscape:connector-curvature="0"/>
    <path style="fill:#ffffff;stroke-width:0.26458335" d="m -11.813771,162.00153 c 0.06733,-0.0673 -0.01947,-0.51483 -0.192915,-0.99445 -0.638736,-1.76639 -0.101394,-4.6974 1.267121,-6.91171 0.293817,-0.47541 0.534215,-0.99915 0.534215,-1.16387 0,-0.86062 -3.591243,0.2747 -5.134409,1.62316 -1.513895,1.3229 -2.835312,5.59164 -2.071436,6.69163 0.668999,0.96337 1.513255,1.21614 3.496156,1.04672 1.088369,-0.093 2.03394,-0.22415 2.101268,-0.29148 z" id="path84575" inkscape:connector-curvature="0"/>
    <path style="fill:#ffffff;stroke-width:0.26458335" d="m 5.0954777,162.01253 c 0.048009,-0.0408 -0.1168903,-0.38585 -0.36644,-0.76671 -0.6184265,-0.94384 -0.3390053,-3.69684 0.5541037,-5.45931 0.7455455,-1.47127 0.8380201,-2.36079 0.2454222,-2.36079 -0.7006299,0 -3.0070954,1.30015 -3.406566,1.92027 -0.2101929,0.3263 -0.5205492,1.55408 -0.6896841,2.72841 -0.3626458,2.51792 0.018733,3.95112 1.1060642,4.15665 0.5679493,0.10735 2.3533338,-0.0452 2.5571,-0.21852 z" id="path84573" inkscape:connector-curvature="0"/>
    <path style="fill:#ffffff;stroke-width:0.26458335" d="m 11.02964,161.60102 c -0.452332,-4.48789 -0.428866,-4.81234 0.433237,-5.9902 0.959905,-1.31148 1.002874,-1.56267 0.305199,-1.7841 -0.990888,-0.3145 -2.6506856,0.38265 -3.9617119,1.664 -1.1822059,1.15544 -1.2825121,1.35754 -1.4347163,2.89079 -0.2694676,2.71455 0.3243395,3.5467 2.7120771,3.80065 1.9179141,0.20398 2.0219171,0.17292 1.9459151,-0.58114 z" id="path84571" inkscape:connector-curvature="0"/>
    <path style="fill:#ffffff;stroke-width:0.26458335" d="m 22.11611,159.77203 c -0.07235,-2.02358 0.01844,-2.83916 0.463021,-4.15884 0.30416,-0.90289 0.553019,-1.72048 0.553019,-1.81687 0,-0.30792 -1.783924,0.1017 -2.507411,0.57575 -2.824144,1.85045 -2.190068,8.28686 0.787619,7.99499 l 0.79375,-0.0778 z" id="path84569" inkscape:connector-curvature="0"/>
    <path style="fill:#ffffff;stroke-width:0.26458335" d="m 27.480402,162.18507 c 0.08038,-0.13006 -0.03165,-0.66201 -0.248967,-1.18212 -0.606748,-1.45216 -0.520745,-4.42365 0.161499,-5.57997 0.746805,-1.26574 0.539686,-1.78251 -0.585118,-1.45992 -1.84426,0.52892 -3.146499,2.64787 -3.146499,5.11984 0,1.76747 0.266776,2.38536 1.263422,2.92622 0.803265,0.43591 2.330035,0.54103 2.555663,0.17595 z" id="path84567" inkscape:connector-curvature="0"/>
    <path style="fill:#ffffff;stroke-width:0.26458335" d="m 32.161998,159.72895 c -0.078,-2.63052 0.228605,-3.79569 1.424287,-5.41259 0.380889,-0.51506 0.38,-0.60204 -0.01013,-0.99218 -0.235199,-0.2352 -0.823513,-0.42763 -1.307367,-0.42763 -1.010719,0 -2.232657,1.18641 -2.939584,2.85412 -0.541179,1.27669 -0.770258,4.21374 -0.402577,5.16145 0.31854,0.82104 1.64043,1.53583 2.661012,1.4389 0.647444,-0.0615 0.649949,-0.0729 0.574363,-2.62207 z" id="path84565" inkscape:connector-curvature="0"/>
    <path style="fill:#ffffff;stroke-width:0.26458335" d="m 57.395692,161.54047 c 3.288649,-1.03144 6.346155,-1.3277 12.101716,-1.17259 5.613143,0.15127 6.392569,5.3e-4 6.718829,-1.29939 0.250743,-0.99904 -0.186574,-1.50486 -1.517475,-1.75519 -1.368227,-0.25735 -7.036319,-0.0391 -9.497862,0.36564 -0.945885,0.15554 -2.969948,0.37314 -4.497917,0.48354 -1.571947,0.11358 -3.971655,0.51903 -5.527119,0.93384 -5.205201,1.38815 -7.968631,0.32233 -6.504628,-2.50874 0.322321,-0.6233 0.578255,-0.78061 1.27,-0.78061 0.950267,0 1.501331,0.39441 1.501331,1.07456 0,0.32042 -0.170868,0.40689 -0.630444,0.31904 -0.757579,-0.14482 -1.12775,0.33088 -0.678609,0.87206 0.36295,0.43733 2.002237,0.27894 2.545548,-0.24595 0.305189,-0.29483 0.469493,-1.32984 0.390904,-2.46243 -0.06222,-0.89667 -1.297776,-2.16521 -2.397268,-2.46127 -1.307904,-0.35218 -3.357049,0.23817 -4.31845,1.24412 -1.55326,1.62525 -2.195544,4.38874 -1.490252,6.41194 0.215347,0.61775 0.60929,1.00489 1.389062,1.36509 0.957043,0.44208 1.567667,0.48935 5.057217,0.39149 3.289824,-0.0923 4.330846,-0.22485 6.085417,-0.77515 z" id="path84563" inkscape:connector-curvature="0"/>
    <path style="fill:#ffffff;stroke-width:0.26458335" d="m 66.501769,161.9925 c 0.06063,-0.0551 -1.010931,-0.0983 -2.38125,-0.0961 -1.757349,0.003 -2.374551,0.0824 -2.094619,0.26998 0.357053,0.23924 4.18469,0.0905 4.475869,-0.17391 z" id="path84561" inkscape:connector-curvature="0"/>
    <path style="fill:#ffffff;stroke-width:0.26458335" d="m 71.677291,162.17992 c 0.511406,-0.1998 0.5103,-0.21137 -0.04875,-0.51057 -0.912013,-0.48809 -3.517222,-0.31305 -3.517222,0.23632 0,0.40968 2.689831,0.61655 3.565974,0.27425 z" id="path84559" inkscape:connector-curvature="0"/>
    <path style="fill:#ffffff;stroke-width:0.26458335" d="m 78.151463,161.46336 c 0.373377,-0.41888 0.906515,-1.43267 1.184757,-2.25286 0.443351,-1.30692 0.461904,-1.59746 0.150084,-2.35026 -0.646861,-1.56166 -1.503727,-2.33152 -2.813666,-2.52796 -1.554901,-0.23317 -3.337579,0.26267 -3.217439,0.89491 0.06508,0.34249 0.424011,0.46672 1.529741,0.52947 1.635146,0.0928 2.052368,0.34858 2.56362,1.57166 0.303572,0.72624 0.302794,0.99548 -0.005,1.73215 -0.499835,1.19628 -1.854017,2.26933 -3.119178,2.47164 -1.83269,0.29305 -0.444976,0.9101 1.741022,0.77415 1.049282,-0.0653 1.441148,-0.23158 1.986068,-0.8429 z" id="path84557" inkscape:connector-curvature="0"/>
    <path style="fill:#ffffff;stroke-width:0.26458335" d="m -22.778668,161.90146 c 0.08685,-0.14053 -0.09882,-0.75875 -0.412599,-1.37381 -1.062738,-2.08314 -0.835821,-3.39753 1.191819,-6.9035 l 0.726839,-1.25677 h -0.82691 c -1.631934,0 -4.126444,1.84687 -4.758354,3.52296 -0.395081,1.04792 -0.348927,2.7216 0.09894,3.58767 0.901475,1.74326 3.443927,3.29127 3.980269,2.42345 z" id="path84555" inkscape:connector-curvature="0"/>
    <path style="fill:#ffffff;stroke-width:0.26458335" d="m -19.201183,161.77732 c 0,-0.20881 -0.114065,-0.67967 -0.253474,-1.04634 -0.485,-1.27565 0.16964,-3.61633 1.602642,-5.73029 0.716479,-1.05695 1.262473,-1.96195 1.213319,-2.0111 -0.04915,-0.0491 -0.821447,0.15786 -1.71621,0.46003 -1.477822,0.49906 -1.713595,0.68673 -2.573885,2.04868 -0.81834,1.29554 -0.929679,1.6611 -0.819277,2.68992 0.215133,2.00475 0.476314,3.02175 0.900327,3.50573 0.492149,0.56174 1.646558,0.62019 1.646558,0.0834 z" id="path84553" inkscape:connector-curvature="0"/>
    <path style="fill:#ffffff;stroke-width:0.26458335" d="m -5.44285,162.00824 c 0,-0.0818 -0.1921722,-0.73625 -0.4270454,-1.45434 -0.5357019,-1.63781 -0.3499194,-3.03037 0.7006272,-5.25176 0.4316148,-0.91264 0.7847515,-1.76772 0.7847515,-1.90018 0,-0.13245 -0.5681847,-0.24083 -1.262634,-0.24083 -2.5502076,0 -4.5581993,2.75532 -4.5581993,6.25466 0,2.42166 0.3461015,2.74118 2.9692891,2.74118 0.9862661,0 1.7932109,-0.0669 1.7932109,-0.14873 z" id="path84551" inkscape:connector-curvature="0"/>
    <path style="fill:#ffffff;stroke-width:0.26458335" d="m -0.314463,161.19757 c -0.6418289,-1.53611 -0.26052463,-4.10754 1.08379154,-7.30883 0.16412898,-0.39085 0.0471117,-0.46302 -0.75070494,-0.46302 -0.68359337,0 -1.2222612,0.23741 -1.9465369,0.85791 -2.2167771,1.89917 -2.2391079,1.9457 -2.1278401,4.43375 0.1416844,3.16815 0.334645,3.43959 2.4451707,3.43959 h 1.69698197 z" id="path84549" inkscape:connector-curvature="0"/>
    <path style="fill:#ffffff;stroke-width:0.26458335" d="m 17.021669,161.58097 c -0.479097,-0.8952 -0.1539,-4.59843 0.546852,-6.22737 0.663786,-1.54302 0.564316,-1.92788 -0.498274,-1.92788 -1.654191,0 -3.478938,1.95502 -3.972415,4.25603 -0.752371,3.50819 -0.211515,4.47522 2.503001,4.47522 1.693976,0 1.72284,-0.0117 1.420836,-0.576 z" id="path84547" inkscape:connector-curvature="0"/>
    <path style="fill:#ffffff;stroke-width:0.26458335" d="m 37.41965,162.01154 c 0,-0.08 -0.193553,-0.51972 -0.430115,-0.97719 -0.497816,-0.96266 -0.366686,-3.41982 0.29894,-5.60174 0.218189,-0.71521 0.329885,-1.36721 0.248219,-1.44888 -0.339286,-0.33928 -2.159701,0.9847 -2.921995,2.12515 -1.517216,2.26988 -1.33228,4.70744 0.423701,5.58466 0.871789,0.4355 2.38125,0.63708 2.38125,0.318 z" id="path84545" inkscape:connector-curvature="0"/>
    <path style="fill:#ffffff;stroke-width:0.26458335" d="m 43.072476,161.42936 c -0.797783,-1.17635 -0.680636,-4.77875 0.218617,-6.72263 0.663085,-1.43336 0.670967,-1.50275 0.185121,-1.62981 -0.902465,-0.23599 -1.765491,0.18844 -3.205139,1.57627 -1.238303,1.19373 -1.451382,1.55754 -1.745094,2.97956 -0.288157,1.39511 -0.277376,1.73865 0.07772,2.47669 0.645369,1.34134 1.865969,2.04753 3.539004,2.04753 h 1.423217 z" id="path84543" inkscape:connector-curvature="0"/>
    <path style="fill:#ffffff;stroke-width:0.26458335" d="m 153.73144,160.83405 c 0.31043,-0.65484 0.64905,-1.57758 0.75252,-2.05052 l 0.18815,-0.8599 -1.41007,-0.008 c -1.55991,-0.009 -1.16909,0.0186 -14.90385,-1.05581 -5.38427,-0.42117 -14.0163,-1.0714 -19.18229,-1.44495 -5.16599,-0.37355 -13.5599,-1.03346 -18.65313,-1.46646 -5.093224,-0.43301 -14.380099,-1.20341 -20.637495,-1.71201 -6.257396,-0.5086 -11.647816,-0.96883 -11.978711,-1.02272 -0.815396,-0.13283 -0.935197,0.15214 -0.901256,2.14383 0.04613,2.7071 0.05194,2.71428 2.195311,2.71428 2.251787,0 3.177977,-0.43144 3.808924,-1.77428 0.617844,-1.31495 0.771421,-1.39326 2.642399,-1.34737 1.40367,0.0344 1.746152,0.15817 2.957562,1.06857 1.638097,1.23107 2.133828,1.93162 2.357737,3.33186 0.207579,1.29814 -0.510701,3.63636 -1.236358,4.02471 -0.278887,0.14926 -0.507066,0.39572 -0.507066,0.54769 0,0.19113 11.398101,0.24944 36.971633,0.18913 l 36.9716,-0.0872 0.56439,-1.19063 z" id="path84541" inkscape:connector-curvature="0"/>
    <path style="fill:#ffffff;stroke-width:0.26458335" d="m -45.002678,161.63527 c 0.0874,-0.14141 -0.03561,-0.55397 -0.273354,-0.91682 -0.264486,-0.40365 -0.488717,-1.48342 -0.577723,-2.78197 -0.135459,-1.97632 -0.09739,-2.1949 0.553556,-3.17855 0.384458,-0.58096 0.699016,-1.1779 0.699016,-1.32654 0,-0.96465 -4.343665,1.15281 -4.806339,2.343 -0.338183,0.86994 -0.05535,3.94024 0.431564,4.68485 0.706398,1.08026 3.518123,1.91249 3.97328,1.17603 z" id="path84539" inkscape:connector-curvature="0"/>
    <path style="fill:#ffffff;stroke-width:0.26458335" d="m -38.90662,161.61807 c 0.09325,-0.15088 -0.09542,-0.77596 -0.419253,-1.38906 -0.786117,-1.48832 -0.754923,-2.91959 0.10455,-4.79692 0.388056,-0.84762 0.705556,-1.66102 0.705556,-1.80756 0,-0.3854 -2.035982,-0.0141 -3.32473,0.60629 -0.703196,0.33852 -1.288008,0.8955 -1.688579,1.60823 -0.572288,1.01824 -0.591354,1.18882 -0.288351,2.57966 0.407551,1.87074 0.883029,2.62431 1.948194,3.08763 0.997497,0.43389 2.723284,0.49898 2.962613,0.11174 z" id="path84537" inkscape:connector-curvature="0"/>
    <path style="fill:#ffffff;stroke-width:0.26458335" d="m -28.090223,161.37204 c -0.962348,-2.29113 -1.166945,-4.94447 -0.503669,-6.53191 0.218282,-0.52242 0.396875,-0.99485 0.396875,-1.04984 0,-0.055 -0.438658,-0.1 -0.974799,-0.1 -1.205285,0 -3.159535,0.91569 -3.58417,1.67942 -0.519441,0.93424 -0.425423,4.95276 0.135935,5.81016 0.455054,0.69504 0.546613,0.71838 2.585993,0.6592 1.783381,-0.0518 2.087573,-0.12485 1.943835,-0.46705 z" id="path84535" inkscape:connector-curvature="0"/>
    <path style="fill:#ffffff;stroke-width:0.26458335" d="m -50.903061,160.96636 c -0.560639,-3.52471 -0.587105,-3.96989 -0.314161,-5.28465 0.160197,-0.77167 0.523716,-1.61341 0.807821,-1.87052 0.710954,-0.6434 0.647094,-0.91668 -0.211053,-0.90317 -0.486037,0.008 -1.199613,0.43437 -2.149301,1.28527 l -1.421696,1.27381 -0.134699,1.88263 c -0.210751,2.94551 0.664713,4.37719 2.581217,4.22118 0.758743,-0.0618 0.910836,-0.17098 0.841872,-0.60455 z" id="path84533" inkscape:connector-curvature="0"/>
    <path style="fill:#ffffff;stroke-width:0.26458335" d="m -97.253267,161.08986 c 0,-0.15036 -0.282987,-0.83497 -0.628859,-1.52136 -0.345871,-0.68638 -0.706125,-1.60581 -0.800563,-2.04318 -0.226605,-1.04945 0.370909,-2.96908 1.397773,-4.4906 0.950947,-1.40904 1.013947,-1.72565 0.343366,-1.72565 -1.34478,0 -2.993401,0.89107 -4.30621,2.32749 -1.33331,1.45886 -1.35706,1.51376 -1.22174,2.82482 0.1897,1.83804 0.90795,3.21608 2.02594,3.88699 1.372384,0.82358 3.190293,1.2461 3.190293,0.74149 z" id="path84531" inkscape:connector-curvature="0"/>
    <path style="fill:#ffffff;stroke-width:0.26458335" d="m -77.648793,160.81836 c -0.05884,-0.20964 -0.162004,-1.12522 -0.229248,-2.03461 -0.09683,-1.30956 0.0034,-1.96299 0.48178,-3.14172 0.443524,-1.09276 0.532064,-1.60257 0.333179,-1.91842 -0.410535,-0.65198 -1.051084,-0.66193 -1.938396,-0.0301 -1.090906,0.7768 -1.878083,2.42522 -2.046837,4.28625 -0.123997,1.36746 -0.06783,1.62698 0.477792,2.20777 0.964531,1.02669 3.166269,1.50208 2.92173,0.63085 z" id="path84529" inkscape:connector-curvature="0"/>
    <path style="fill:#ffffff;stroke-width:0.26458335" d="m -65.76785,161.15894 c 0,-0.11237 -0.369036,-0.65201 -0.820076,-1.1992 -1.333492,-1.61775 -1.373399,-3.97971 -0.09897,-5.85768 0.359955,-0.53042 0.654463,-1.06553 0.654463,-1.18912 0,-0.12358 -0.506016,-0.11568 -1.12448,0.0176 -1.432152,0.30858 -2.428144,1.37687 -2.963066,3.17814 -0.733237,2.46908 -0.447254,3.85892 0.972095,4.7243 0.853226,0.52022 3.380034,0.76391 3.380034,0.32599 z" id="path84527" inkscape:connector-curvature="0"/>
    <path style="fill:#ffffff;stroke-width:0.26458335" d="m -55.883437,160.63563 c -0.36865,-1.18101 -0.21993,-4.59392 0.247882,-5.68854 0.476658,-1.11531 0.402466,-1.15629 -1.268753,-0.70077 -2.550801,0.69527 -3.516188,2.856 -2.481803,5.55476 0.313458,0.81782 1.607765,1.52175 2.841215,1.54524 0.850141,0.0162 0.878753,-0.0146 0.661459,-0.71069 z" id="path84525" inkscape:connector-curvature="0"/>
    <path style="fill:#ffffff;stroke-width:0.26458335" d="m -35.008963,159.04813 c -0.118015,-2.08681 0.03189,-3.25562 0.593852,-4.63021 0.2638,-0.64527 -0.549474,-0.60973 -1.669182,0.0729 -2.437178,1.48591 -2.051678,6.87239 0.491847,6.87239 h 0.714409 z" id="path84523" inkscape:connector-curvature="0"/>
    <path style="fill:#ffffff;stroke-width:0.26458335" d="m -102.54493,160.94106 c 0,-0.0867 -0.21992,-0.47363 -0.4887,-0.8599 -1.11112,-1.59678 -1.42308,-4.04423 -0.72764,-5.70866 0.60472,-1.4473 2.2873,-3.08936 3.994462,-3.89829 0.873125,-0.41372 1.795859,-0.75232 2.05052,-0.75243 0.768657,-2.7e-4 0.519179,-0.52712 -0.264583,-0.55866 -1.505961,-0.0606 -2.096639,0.0957 -3.770309,0.998 -2.35179,1.26785 -2.60152,1.56701 -3.18563,3.81629 -0.86492,3.33063 -0.55369,5.37249 1.00591,6.59927 0.63504,0.49953 1.38597,0.69695 1.38597,0.36438 z" id="path84521" inkscape:connector-curvature="0"/>
    <path style="fill:#ffffff;stroke-width:0.26458335" d="m -91.681242,160.37105 c -0.553924,-0.76155 -1.338691,-3.41732 -1.338691,-4.53034 0,-0.92568 1.503309,-3.14442 2.73508,-4.03671 l 1.048482,-0.75951 -1.164177,0.002 c -1.787112,0.002 -3.081462,0.46865 -4.266967,1.53749 -2.015755,1.81738 -2.537695,4.01115 -1.461273,6.1419 0.798579,1.58077 2.029164,2.3733 3.68507,2.3733 h 1.291709 l -0.529233,-0.7276 z" id="path84519" inkscape:connector-curvature="0"/>
    <path style="fill:#ffffff;stroke-width:0.26458335" d="m -82.172017,160.86638 c 0,-0.12775 -0.190621,-0.68849 -0.423603,-1.24609 -0.551272,-1.31939 -0.326824,-3.05777 0.709115,-5.49219 0.430435,-1.01151 0.72322,-1.89849 0.650634,-1.97108 -0.291695,-0.29169 -3.613285,1.61802 -4.333086,2.49126 -1.622121,1.96792 -1.213541,4.67286 0.883399,5.84838 1.058529,0.5934 2.513541,0.80742 2.513541,0.36972 z" id="path84517" inkscape:connector-curvature="0"/>
    <path style="fill:#ffffff;stroke-width:0.26458335" d="m -61.204256,160.94478 c 0.08463,-0.0846 -0.01458,-0.55705 -0.220488,-1.04983 -0.802783,-1.92134 -0.25001,-4.12663 1.552009,-6.19174 l 0.796817,-0.91315 -0.740638,-0.24688 c -1.181753,-0.39392 -3.365341,0.43074 -4.812718,1.81757 l -1.214464,1.16366 0.155797,1.50955 c 0.189503,1.83609 1.312633,3.57829 2.472264,3.83495 1.037545,0.22965 1.827837,0.25946 2.011421,0.0759 z" id="path84515" inkscape:connector-curvature="0"/>
    <path style="fill:#ffffff;stroke-width:0.26458335" d="m -87.902212,160.03632 c -0.866563,-1.73707 -0.341442,-4.84684 1.152721,-6.8264 0.364191,-0.4825 0.586782,-0.95266 0.494649,-1.04479 -0.09214,-0.0921 -0.729236,-0.0193 -1.415783,0.16189 -2.297067,0.60616 -4.046132,3.07969 -3.583273,5.06747 0.381855,1.63989 2.109097,3.43592 3.306916,3.43859 0.404045,7.9e-4 0.407959,-0.0687 0.04477,-0.79676 z" id="path84513" inkscape:connector-curvature="0"/>
    <path style="fill:#ffffff;stroke-width:0.26458335" d="m -72.185821,158.51897 c -0.0031,-2.01329 0.242601,-3.59688 0.77239,-4.97749 0.112183,-0.29234 -0.103307,-0.38033 -0.931487,-0.38033 -1.494602,0 -2.8028,1.16782 -3.341952,2.98334 -0.782352,2.63447 -0.468265,3.65267 1.323562,4.29073 2.121736,0.75554 2.181564,0.70289 2.177487,-1.91625 z" id="path84511" inkscape:connector-curvature="0"/>
    <path style="fill:#ffffff;stroke-width:0.26458335" d="m 56.931896,157.25193 c 0.535929,-0.22392 1.066064,-0.55135 1.178075,-0.7276 0.112012,-0.17626 0.205484,-8.0893 0.207712,-17.58453 l 0.004,-17.26406 -7.077604,-0.001 c -9.607084,-0.002 -86.780243,-0.7344 -124.949479,-1.1866 -6.097543,-0.0722 -10.876881,-0.0249 -11.089799,0.10982 -0.311335,0.19701 -0.405111,2.67351 -0.558403,14.7464 -0.101325,7.98029 -0.08509,14.70397 0.03609,14.94151 0.338328,0.66321 0.940551,0.7803 2.23403,0.43434 1.027949,-0.27493 1.347026,-0.24969 2.436204,0.19275 0.689332,0.28001 1.848644,0.52281 2.576248,0.53956 0.727604,0.0168 1.638287,0.1203 2.023742,0.2301 0.448506,0.12777 1.234697,0.0314 2.183678,-0.26777 1.395722,-0.43997 1.53774,-0.44126 2.417006,-0.022 1.251889,0.59698 1.758616,0.56379 3.297449,-0.216 1.519513,-0.76999 2.342274,-0.82115 3.863406,-0.24022 0.951773,0.36348 1.198441,0.3712 1.799408,0.0563 1.00503,-0.52658 4.345029,-0.20237 4.836287,0.46947 0.301296,0.41204 0.6736,0.47756 2.403194,0.42292 1.125665,-0.0356 2.357416,-0.1873 2.737223,-0.33719 0.429321,-0.16942 2.581304,-0.22596 5.688542,-0.14945 5.739265,0.14132 5.459486,0.13758 6.850065,0.0917 0.582083,-0.0192 1.748216,0.183 2.591403,0.44939 0.975969,0.30834 1.841291,0.42033 2.38125,0.30819 0.4665,-0.0969 1.116071,-0.16279 1.443493,-0.14643 3.292946,0.16447 7.230705,-0.12238 8.13943,-0.59292 0.438483,-0.22705 1.488646,-0.61381 2.333696,-0.85948 1.447017,-0.42066 1.565651,-0.42024 2.037964,0.007 0.55781,0.50481 1.990553,0.59761 4.126783,0.26729 1.104958,-0.17086 1.511935,-0.1192 2.182812,0.2771 0.78353,0.46284 0.862923,0.4645 1.593054,0.0332 0.999424,-0.59037 1.979779,-0.57293 4.0366474,0.0718 1.9126227,0.59955 3.0798082,0.66577 4.038182,0.2291 0.5153316,-0.2348 0.7586001,-0.22669 1.0749201,0.0358 0.3090545,0.25649 1.0917846,0.29357 3.20681875,0.15189 2.43229875,-0.16293 2.86296625,-0.12861 3.29528225,0.26263 0.462452,0.41851 0.5609431,0.41987 1.4050671,0.0193 1.1256672,-0.53416 2.0718013,-0.54352 3.7762471,-0.0374 0.7285964,0.21637 1.7324705,0.3919 2.2308344,0.39006 2.3633849,-0.009 4.3709779,-0.13852 4.6155319,-0.29841 0.148407,-0.097 1.123056,-0.26049 2.165884,-0.36325 1.691244,-0.16665 1.972575,-0.12664 2.604487,0.37042 0.707922,0.55685 0.708914,0.55688 1.375524,0.0325 0.816168,-0.642 1.474409,-0.65521 3.657687,-0.0735 1.448613,0.386 1.831867,0.40128 2.6494,0.10566 0.695471,-0.25149 1.035117,-0.26631 1.247013,-0.0544 0.457907,0.45791 0.901634,0.35067 2.079453,-0.50253 1.328502,-0.96237 2.137402,-1.00895 2.696742,-0.15529 0.576038,0.87915 1.715738,1.06203 4.152429,0.66632 1.703046,-0.27657 2.148819,-0.27461 2.492928,0.011 0.350068,0.29053 0.565261,0.26902 1.30742,-0.13066 0.842074,-0.45348 0.970198,-0.45546 2.457982,-0.038 2.080681,0.58381 2.700465,0.55604 3.458099,-0.15491 0.543946,-0.51043 0.923634,-0.59531 2.662886,-0.59531 1.552633,0 2.239229,0.12413 2.926868,0.52917 1.455619,0.85739 1.860008,1.62707 2.050402,3.9026 0.162039,1.93661 0.206632,2.05052 0.802701,2.05052 0.347125,0 1.06962,-0.18321 1.60555,-0.40714 z" id="path84509" inkscape:connector-curvature="0"/>
    <path style="fill:#ffffff;stroke-width:0.26458335" d="m 158.17831,155.76276 c 0.11314,-0.70748 0.0704,-1.16804 -0.11935,-1.2853 -0.16264,-0.10051 -1.5662,-0.26274 -3.11907,-0.36053 -1.55284,-0.0978 -4.72837,-0.34647 -7.0567,-0.55264 -5.82155,-0.51549 -6.98092,-0.60229 -19.57917,-1.46598 -4.2201,-0.28932 -13.62604,-0.94056 -20.90208,-1.44722 -7.27604,-0.50666 -14.241196,-0.9897 -15.478123,-1.07344 -1.236927,-0.0837 -4.094427,-0.327 -6.35,-0.54061 -2.255573,-0.21361 -4.815417,-0.45351 -5.688542,-0.53311 -0.873125,-0.0796 -3.592116,-0.37398 -6.0422,-0.65417 -6.794989,-0.77708 -8.585983,-0.61401 -9.042159,0.82327 -0.332586,1.04789 0.214556,1.2405 4.044193,1.42368 3.57168,0.17084 6.049862,0.31929 9.188083,0.5504 0.873125,0.0643 5.87375,0.4218 11.1125,0.79444 17.309888,1.23129 30.575198,2.25339 39.422918,3.03758 4.80219,0.42562 11.1125,0.95887 14.02291,1.185 2.91042,0.22613 5.88698,0.46726 6.61459,0.53586 0.7276,0.0686 2.69213,0.20074 4.36562,0.29366 1.67349,0.0929 3.09232,0.21455 3.15296,0.27031 0.0606,0.0557 0.37283,0.10136 0.69379,0.10136 0.48009,0 0.61479,-0.19543 0.75983,-1.10256 z" id="path84507" inkscape:connector-curvature="0"/>
    <path style="fill:#ffffff;stroke-width:0.26458335" d="m 156.47853,152.03667 c -0.008,-1.29016 -0.29967,-1.7701 -1.15002,-1.89116 -0.45691,-0.0651 -3.33105,-0.37421 -6.38698,-0.68702 -3.05594,-0.31281 -5.97297,-0.62032 -6.4823,-0.68335 -0.50932,-0.063 -4.79557,-0.59017 -9.525,-1.17143 -4.72942,-0.58125 -10.44442,-1.3028 -12.7,-1.60344 -10.03056,-1.33697 -13.88147,-1.87982 -14.04289,-1.97959 -0.20484,-0.12659 -9.330708,-1.65575 -15.722732,-2.63455 -8.639154,-1.3229 -10.642623,-1.85308 -15.316102,-4.05312 l -2.616105,-1.23152 -1.422034,1.56477 c -1.903635,2.09472 -2.723193,3.83295 -2.921289,6.19586 -0.145383,1.73413 -0.116991,1.89109 0.342884,1.8954 0.548236,0.005 2.583979,0.22031 9.629521,1.01778 2.546615,0.28825 5.64224,0.60074 6.879167,0.69442 1.236927,0.0937 5.463646,0.4547 9.392708,0.80226 9.267562,0.81979 12.891192,1.09632 20.769792,1.585 3.56526,0.22114 7.19667,0.45511 8.06979,0.51994 0.87313,0.0648 2.7186,0.18301 4.10104,0.26264 6.86668,0.39553 23.69931,1.50377 25.79688,1.69843 1.30969,0.12155 2.58961,0.23742 2.84427,0.25749 0.31551,0.0249 0.46188,-0.15313 0.4594,-0.55881 z" id="path84505" inkscape:connector-curvature="0"/>
    <path style="fill:#ffffff;stroke-width:0.26458335" d="m -93.322349,150.01513 c 0.935209,-0.59257 -0.857213,-2.93939 -2.245011,-2.93939 -0.473509,0 -0.913262,0.0893 -0.977226,0.19843 -0.06397,0.10914 0.349891,0.82352 0.919679,1.5875 1.005327,1.34797 1.558356,1.62501 2.302558,1.15346 z" id="path84503" inkscape:connector-curvature="0"/>
    <path style="fill:#ffffff;stroke-width:0.26458335" d="m -90.528032,149.56097 c 0.230185,-0.0883 0.418515,-0.30078 0.418515,-0.47212 0,-0.32895 -1.333949,-1.21936 -1.82676,-1.21936 -0.516974,0 -0.306512,1.01669 0.298133,1.4402 0.682638,0.47814 0.579665,0.45483 1.110112,0.25128 z" id="path84501" inkscape:connector-curvature="0"/>
    <path style="fill:#ffffff;stroke-width:0.26458335" d="m -116.17098,147.98195 c 2.18282,-0.22562 6.82069,-0.46286 10.30639,-0.52721 6.195844,-0.11437 6.358621,-0.13145 7.276037,-0.76335 0.516126,-0.3555 1.503958,-0.79634 2.195182,-0.97963 1.945603,-0.51594 1.66016,-0.92565 -0.896681,-1.28706 -0.883015,-0.12481 -1.815041,-0.41658 -2.071171,-0.64837 -0.407302,-0.36861 -0.830967,-0.387 -3.379077,-0.1467 -1.60236,0.1511 -4.14868,0.4463 -5.65849,0.656 -7.82764,1.08716 -18.20391,1.3515 -22.97774,0.58538 -7.12508,-1.14346 -12.02809,-3.58973 -16.32891,-8.14701 -2.43649,-2.58177 -3.54218,-5.93583 -2.9801,-9.03996 0.4109,-2.26924 1.60097,-5.59202 2.6257,-7.33122 1.77032,-3.00461 5.11092,-6.59775 9.1347,-9.82526 7.19403,-5.77038 8.15788,-6.41432 15.55435,-10.39174 9.19089,-4.942371 20.33214,-11.728831 26.791613,-16.319566 l 2.18813,-1.555099 0.188953,-2.268366 c 0.225374,-2.705571 0.399878,-2.883268 3.309358,-3.369873 1.186878,-0.198507 1.979475,-0.465543 2.054111,-0.69206 0.09954,-0.30211 -0.180046,-0.334717 -1.545429,-0.18024 -1.988441,0.224965 -3.646432,1.015378 -5.425937,2.586704 -3.133291,2.766738 -7.535319,5.656009 -17.450569,11.453686 -3.92906,2.297417 -8.98922,5.311791 -11.24479,6.698615 -21.59532,13.277739 -29.87096,22.200229 -30.60172,32.993679 -0.24456,3.61224 0.77635,7.57572 2.56123,9.94348 0.97008,1.28687 4.30994,4.14017 6.08566,5.19908 1.58002,0.94221 5.7296,2.38289 7.85959,2.72874 6.42086,1.04257 15.85863,1.30654 22.42961,0.62735 z" id="path84499" inkscape:connector-curvature="0"/>
    <path style="fill:#ffffff;stroke-width:0.26458335" d="m -88.256229,142.90855 c 5.29e-4,-0.69123 0.07766,-2.58356 0.171106,-4.20518 l 0.169902,-2.94841 -1.427877,-0.11477 c -1.825464,-0.14672 -3.135487,0.33496 -3.18053,1.16944 -0.05253,0.97318 0.0527,3.14325 0.248507,5.12479 l 0.181229,1.83402 1.058334,0.16089 c 0.582083,0.0885 1.445286,0.17779 1.918229,0.19844 0.854564,0.0373 0.859904,0.0298 0.8611,-1.21922 z" id="path84497" inkscape:connector-curvature="0"/>
    <path style="fill:#ffffff;stroke-width:0.26458335" d="m -95.022223,142.24709 c 0.06845,-0.32742 0.164293,-1.02823 0.212976,-1.55736 l 0.08852,-0.96204 -1.324729,-0.15689 c -0.729787,-0.0864 -1.439436,-0.0422 -1.580145,0.0985 -0.140477,0.14048 -0.263001,0.81542 -0.272269,1.49986 -0.015,1.10749 0.05594,1.26513 0.644604,1.43246 1.374662,0.39074 2.099305,0.27558 2.231044,-0.35455 z" id="path84493" inkscape:connector-curvature="0"/>
    <path style="fill:#ffffff;stroke-width:0.26458335" d="m 29.48215,118.10499 c 0,-0.92932 -0.109654,-1.75745 -0.243676,-1.84028 -0.441624,-0.27294 -86.430141,-0.15739 -92.062133,0.12371 -2.964604,0.14796 -5.468665,0.31753 -5.564585,0.37681 -0.328665,0.20313 -0.293505,1.66783 0.04682,1.95027 0.343254,0.28488 41.169717,0.76452 70.9572889,0.83362 7.5609901,0.0175 13.8039581,0.0886 13.8732631,0.1579 0.0693,0.0693 3.021089,0.11738 6.559518,0.10684 l 6.433508,-0.0192 z" id="path84491" inkscape:connector-curvature="0"/>
    <path style="fill:#ffffff;stroke-width:0.26458335" d="m 18.62737,114.11564 c 0.505595,-0.5058 -0.634981,-1.18955 -2.413148,-1.44663 -0.924568,-0.13367 -3.824155,-0.24726 -6.4435303,-0.25241 -2.619375,-0.005 -4.9195858,-0.10898 -5.1115781,-0.23072 -0.2026734,-0.12851 1.2953709,-0.2981 3.571875,-0.40438 4.3165474,-0.20152 7.5238794,-0.64176 6.9363114,-0.95209 -0.489278,-0.25842 -3.646093,-0.5082 -8.8361917,-0.69916 -3.9690251,-0.14603 -5.53677928,-0.42554 -4.0731651,-0.7262 0.3484694,-0.0716 3.1423557,-0.19319 6.2086357,-0.27024 3.0662771,-0.077 5.8642461,-0.25565 6.2177081,-0.39689 0.853205,-0.34093 -25.703556,-0.35662 -35.47297,-0.021 -4.001823,0.1375 -11.621823,0.326 -16.933334,0.41889 -5.31151,0.0929 -10.371666,0.2637 -11.244791,0.37958 -0.962589,0.12776 2.318194,0.20567 8.334375,0.19793 9.313034,-0.012 10.847916,0.071 10.847916,0.5863 0,0.48599 -1.477531,0.57509 -11.90625,0.71804 -6.039114,0.0828 -11.273829,0.25957 -11.632702,0.39288 -1.409288,0.5235 0.254,0.73383 6.076452,0.76841 3.274219,0.0195 6.310313,0.11703 6.746875,0.21686 1.448314,0.33117 -3.286175,0.84736 -8.837946,0.96357 -2.851734,0.0597 -5.601689,0.21692 -6.111012,0.34939 l -0.926042,0.24085 0.926042,0.064 c 6.526228,0.45136 73.634973,0.54461 74.07647,0.10293 z" id="path84489" inkscape:connector-curvature="0"/>
    <path style="fill:#ffffff;stroke-width:0.26458335" d="m -25.418892,104.73519 c 46.685055,-0.51914 50.793103,-0.59103 50.994387,-0.89238 0.106913,-0.16006 0.19621,-0.63523 0.198438,-1.05593 l 0.004,-0.76491 -3.373438,0.16743 c -4.487431,0.22272 -20.4049549,0.29406 -20.60666,0.0924 -0.087471,-0.0875 -0.2189506,-0.69057 -0.2921767,-1.34021 -0.096449,-0.85571 -0.2674832,-1.216305 -0.62070986,-1.308676 -0.26816579,-0.07013 -7.72499724,0.03034 -16.57073244,0.223273 -8.845738,0.192933 -21.024252,0.423743 -27.063367,0.512923 -10.514047,0.15527 -19.649577,0.50271 -21.761979,0.82765 -1.10408,0.16983 -1.162709,0.37567 -0.819724,2.87802 l 0.172466,1.25826 8.62493,-0.17386 c 4.743714,-0.0956 18.745247,-0.2864 31.114518,-0.42395 z" id="path84487" inkscape:connector-curvature="0"/>
    <path style="fill:#ffffff;stroke-width:0.26458335" d="m 39.464371,99.548199 5.08743,-0.154832 -0.131509,-1.88954 C 44.34796,96.464581 44.052463,90.673193 43.763631,84.634078 43.288333,74.696227 42.670052,62.094556 41.115437,30.659076 40.823975,24.765482 40.52476,18.514701 40.450518,16.768451 40.376276,15.022201 40.26377,12.760013 40.200506,11.741368 40.137241,10.722722 40.012508,8.1628779 39.923317,6.0528257 39.834129,3.9427736 39.592609,0.37089847 39.386607,-1.8846745 39.180606,-4.1402475 38.831319,-10.152904 38.610415,-15.246133 38.140253,-26.086398 37.729638,-34.180758 37.536665,-36.4128 c -0.345681,-3.998352 -0.690544,-7.133771 -0.805014,-7.318985 -0.06887,-0.111435 -1.460291,0.257885 -3.092048,0.82071 -2.480119,0.855442 -21.592667,7.036059 -25.985578,8.403218 -2.4865806,0.773872 -12.4349986,4.359301 -12.6422467,4.556291 -0.1956859,0.185999 -0.025003,2.687277 1.527003,22.3783497 0.7101337,9.0098221 0.7590261,9.7177598 1.3339074,19.3145843 0.2179294,3.63802 0.512998,8.281458 0.655709,10.31875 0.1427136,2.037292 0.378796,6.025885 0.52463168,8.863542 0.14583568,2.837656 0.32258,5.87375 0.39276072,6.746875 0.0701834,0.873125 0.25269296,3.790156 0.40557186,6.482292 0.15288154,2.692135 0.3310255,5.668698 0.39587487,6.614583 1.61206127,23.51321 2.29179177,35.607782 2.57396987,45.799017 0.047569,1.718043 0.1920028,2.68606 0.4464579,2.992241 0.349758,0.42086 1.4538616,0.441792 15.7427084,0.298482 8.451612,-0.08477 17.655913,-0.223795 20.453998,-0.308951 z" id="path84485" inkscape:connector-curvature="0"/>
    <path style="fill:#ffffff;stroke-width:0.26458335" d="m -57.698058,97.997659 c 5.675312,-0.07644 14.843125,-0.155218 20.372916,-0.175067 10.806235,-0.03879 20.467146,-0.280062 31.5845934,-0.788787 L 1.2377971,96.71448 1.0717579,94.047718 C 0.98043694,92.580997 0.6076496,87.273297 0.24333952,82.252828 -0.87704125,66.813123 -1.4608259,58.425114 -1.6072992,55.662202 -1.6844437,54.206994 -1.8067924,52.361525 -1.8791824,51.56116 -2.0156756,50.05203 -2.6492178,36.767602 -2.9264879,29.600743 -3.5499864,13.484525 -3.8702804,8.769324 -5.5774488,-9.4252997 -5.946106,-13.354362 -6.3737468,-18.057331 -6.5277634,-19.876342 c -0.1540166,-1.81901 -0.3676094,-3.398372 -0.4746466,-3.509692 -0.1070398,-0.111321 -1.3179742,0.150571 -2.690966,0.58198 -9.786898,3.075154 -26.971837,8.349274 -34.510932,10.591533 -10.592171,3.1502984 -9.52418,2.8133357 -25.664584,8.0974407 -13.220837,4.3282871 -15.742708,5.3170245 -15.742708,6.1721737 0,0.5734129 0.695013,5.9117232 1.966992,15.1082326 0.493117,3.565261 1.034939,7.672917 1.20405,9.128125 0.169114,1.455209 0.477578,4.015052 0.68548,5.688542 0.207901,1.67349 0.677571,5.602552 1.043712,8.73125 0.366141,3.128698 0.843315,6.99823 1.060389,8.598959 1.226691,9.045813 2.573557,19.018563 3.037324,22.489584 0.291651,2.182812 0.948899,7.064375 1.460553,10.847917 0.511657,3.783542 1.174345,8.724635 1.472642,10.980208 0.298297,2.255573 0.590579,4.252466 0.649518,4.437539 0.08069,0.253376 0.713221,0.303483 2.560645,0.202841 1.349417,-0.07351 7.096924,-0.196197 12.772237,-0.272632 z" id="path84483" inkscape:connector-curvature="0"/>
    <path style="fill:#000000;stroke-width:0.26458335" d="m -70.794933,32.514287 c 0,-0.564618 0.127428,-0.796877 0.437208,-0.796877 1.179544,0 16.743786,-3.685173 20.597167,-4.876829 1.761617,-0.544778 1.765742,-0.54368 1.670409,0.44497 -0.09679,1.003742 0.667777,0.751068 -10.533951,3.481264 -6.781459,1.652844 -8.664038,2.059995 -11.046354,2.389036 -1.10839,0.153091 -1.124479,0.14391 -1.124479,-0.641564 z" id="path84481" inkscape:connector-curvature="0"/>
    <path style="fill:#000000;stroke-width:0.26458335" d="m -71.853267,28.034883 c 0,-0.13362 -0.06984,-0.424952 -0.155207,-0.647406 -0.234402,-0.610849 0.169196,-0.712544 14.839582,-3.739155 2.53573,-0.52314 6.459667,-1.600981 7.417861,-2.037562 0.784892,-0.357621 1.169829,-0.01598 1.177047,1.04467 0.0037,0.53508 -0.124193,0.595313 -1.263444,0.595313 -0.697124,0 -2.334233,0.344355 -3.638021,0.765236 -1.30379,0.42088 -5.108963,1.323618 -8.455943,2.006084 -3.346979,0.682466 -6.87216,1.469205 -7.833733,1.748306 -2.006245,0.582321 -2.088142,0.592695 -2.088142,0.264514 z" id="path84479" inkscape:connector-curvature="0"/>
    <path style="fill:#000000;stroke-width:0.26458335" d="m -73.176183,22.070315 c 0,-0.544362 0.184573,-0.698804 1.124479,-0.940925 0.618463,-0.159313 1.481667,-0.396451 1.918229,-0.526973 0.436562,-0.130519 1.74625,-0.414036 2.910417,-0.630031 4.361254,-0.809181 14.1635,-3.082174 15.584305,-3.613764 1.634426,-0.611518 1.889405,-0.562314 2.07338,0.400087 0.08707,0.455472 -0.0055,0.695733 -0.299135,0.776518 -2.367616,0.651343 -7.319565,1.821452 -9.553342,2.257382 -7.149793,1.395307 -10.973673,2.19863 -12.116525,2.545446 -1.628389,0.494159 -1.641808,0.491971 -1.641808,-0.26774 z" id="path84477" inkscape:connector-curvature="0"/>
    <path style="fill:#000000;stroke-width:0.26458335" d="m -74.201954,16.998842 c -0.174326,-0.382606 -0.280602,-0.732004 -0.236167,-0.776438 0.04443,-0.04443 2.281314,-0.624118 4.970843,-1.288185 5.288513,-1.30578 17.482902,-4.45243 18.474947,-4.767292 0.549108,-0.1742807 0.601517,-0.119205 0.524073,0.55072 -0.07344,0.635283 -0.260532,0.790691 -1.276675,1.060469 -0.654844,0.173855 -3.512344,0.932656 -6.35,1.686218 -2.837657,0.753565 -6.084999,1.655411 -7.216318,2.004103 -1.769991,0.545541 -8.16307,2.226056 -8.468444,2.226056 -0.05791,0 -0.247931,-0.313042 -0.422259,-0.695651 z" id="path84475" inkscape:connector-curvature="0"/>
    <path style="fill:#000000;stroke-width:0.26458335" d="m -75.406613,11.374472 c -0.07975,-0.129032 0.0026,-0.351292 0.182822,-0.49391 0.745665,-0.589831 6.295162,-2.32477 12.498649,-3.9074519 3.638021,-0.928161 7.592015,-1.9759111 8.786657,-2.3283334 2.352236,-0.6939175 2.694098,-0.5792365 1.978943,0.6638528 -0.442857,0.7697814 -0.276469,0.7150285 -7.458308,2.4542698 -2.110052,0.5109951 -6.336771,1.58437 -9.392708,2.3852767 -5.757683,1.508983 -6.352948,1.61965 -6.596055,1.226296 z" id="path84473" inkscape:connector-curvature="0"/>
    <path style="fill:#000000;stroke-width:0.26458335" d="m -76.489804,5.50372 c -0.09585,-0.3020086 -0.122912,-0.6004719 -0.06013,-0.6632522 0.06278,-0.06278 1.413105,-0.4161737 3.000719,-0.7853178 1.587617,-0.3691466 4.136732,-1.0908903 5.6647,-1.6038751 1.527969,-0.5129847 3.611563,-1.2094713 4.630209,-1.54774371 1.018645,-0.33827509 3.518958,-1.03352867 5.55625,-1.54501325 2.037291,-0.51148454 3.949327,-1.00838794 4.248967,-1.10423064 0.411329,-0.1315694 0.614797,-0.020638 0.830501,0.4527815 0.281675,0.61820689 0.238588,0.64136587 -3.058343,1.6439039 -1.839224,0.55927362 -5.844355,1.7809793 -8.900292,2.7148976 -5.503976,1.6820621 -10.434299,2.9859526 -11.293107,2.9866141 -0.244856,1.879e-4 -0.523619,-0.2467557 -0.619472,-0.5487644 z" id="path84471" inkscape:connector-curvature="0"/>
    <path style="fill:#ffffff;stroke-width:0.26458335" d="m -76.951216,88.422303 c 0.161668,-0.490895 -0.839901,-0.883939 -2.693588,-1.057037 -1.632659,-0.152461 -1.697204,-0.136141 -1.558547,0.394081 0.07955,0.304218 0.459698,0.671311 0.844762,0.815761 0.929807,0.348797 3.276843,0.243546 3.407373,-0.152805 z" id="path84469" inkscape:connector-curvature="0"/>
    <path style="fill:#ffffff;stroke-width:0.26458335" d="m -77.633137,85.000653 c 0.09529,-0.05615 0.128452,-0.548556 0.07369,-1.09423 -0.433723,-4.322238 -0.701466,-6.461752 -0.943644,-7.540575 l -0.282125,-1.25677 h -4.074653 -4.074652 v 0.887619 c 0,2.000501 0.567571,7.685595 0.813091,8.144351 0.181639,0.3394 0.570132,0.498113 1.246738,0.509344 0.540584,0.009 1.756786,0.179356 2.702671,0.378627 1.479561,0.3117 3.988382,0.296021 4.53888,-0.02837 z" id="path84467" inkscape:connector-curvature="0"/>
    <path style="fill:#ffffff;stroke-width:0.26458335" d="m -88.852746,81.131738 c 0.181901,-0.146643 0.329105,-0.698527 0.327118,-1.22641 -0.0088,-2.340105 -0.811432,-2.878146 -1.537216,-1.030478 l -0.439923,1.119939 -0.136702,-0.78921 c -0.163349,-0.943036 -0.626674,-0.94533 -0.744392,-0.0037 -0.125762,1.005975 -0.577739,0.805421 -0.577739,-0.256365 0,-0.646758 -0.119692,-0.926042 -0.396875,-0.926042 -0.313854,0 -0.396875,0.376219 -0.396875,1.798477 v 1.798478 l 1.785937,-0.109048 c 0.982266,-0.05997 1.934766,-0.229023 2.116667,-0.375663 z" id="path84465" inkscape:connector-curvature="0"/>
    <path style="fill:#ffffff;stroke-width:0.26458335" d="m -79.34283,72.393283 c 0.224634,-0.224634 0.327782,-0.538914 0.229214,-0.698399 -0.227211,-0.367634 -2.661597,-0.379355 -3.340378,-0.01609 -0.579416,0.310094 -0.676973,0.931172 -0.181044,1.152588 0.61508,0.274614 2.881025,-0.02692 3.292208,-0.438107 z" id="path84463" inkscape:connector-curvature="0"/>
    <path style="fill:#ffffff;stroke-width:0.26458335" d="m -80.584517,60.900476 c 0,-0.457203 -0.794398,-6.511348 -3.846631,-29.315358 -2.267815,-16.943428 -2.286117,-17.065625 -2.555939,-17.065625 -0.129095,0 -0.877938,0.485634 -1.664094,1.07919 -1.253088,0.946089 -1.400987,1.153867 -1.199176,1.684668 0.340344,0.895176 1.208937,5.38016 2.251334,11.624787 0.738828,4.426064 1.53429,11.303416 1.992781,17.229064 0.168891,2.182812 0.426614,4.325937 0.572714,4.7625 0.146101,0.436562 0.418788,2.355255 0.605973,4.263758 0.187187,1.908506 0.503367,3.813506 0.702627,4.233333 0.217149,0.457528 0.839264,0.997445 1.552911,1.347732 1.452671,0.713029 1.5875,0.726276 1.5875,0.155951 z" id="path84431" inkscape:connector-curvature="0"/>
  </g>
</svg>